<?xml version="1.0" encoding="UTF-8" standalone="no"?>
<svg
   width="300mm"
   height="413mm"
   viewBox="-90 -333 300 413"
   version="1.1"
   id="svg1"
   sodipodi:docname="box.svg"
   inkscape:version="1.3.1 (1:1.3.1+202311172155+91b66b0783)"
   xmlns:inkscape="http://www.inkscape.org/namespaces/inkscape"
   xmlns:sodipodi="http://sodipodi.sourceforge.net/DTD/sodipodi-0.dtd"
   xmlns="http://www.w3.org/2000/svg"
   xmlns:svg="http://www.w3.org/2000/svg">
  <defs
     id="defs1" />
  <sodipodi:namedview
     id="namedview1"
     pagecolor="#ffffff"
     bordercolor="#666666"
     borderopacity="1.0"
     inkscape:showpageshadow="2"
     inkscape:pageopacity="0.0"
     inkscape:pagecheckerboard="0"
     inkscape:deskcolor="#d1d1d1"
     inkscape:document-units="mm"
     inkscape:zoom="0.53557304"
     inkscape:cx="566.68274"
     inkscape:cy="780.47244"
     inkscape:window-width="1920"
     inkscape:window-height="1029"
     inkscape:window-x="0"
     inkscape:window-y="27"
     inkscape:window-maximized="1"
     inkscape:current-layer="svg1" />
  <title
     id="title1">OpenSCAD Model</title>
  <path
     d=" M 19.475,-213 L 28.525,-213 L 28.525,-210 L 37.475,-210 L 37.475,-213 L 46.525,-213  L 46.525,-210 L 55.475,-210 L 55.475,-213 L 64.525,-213 L 64.525,-210 L 73.475,-210  L 73.475,-213 L 82.525,-213 L 82.525,-210 L 91.475,-210 L 91.475,-213 L 100.525,-213  L 100.525,-210 L 109.475,-210 L 109.475,-213 L 117,-213 L 117,-222.025 L 120,-222.025  L 120,-230.975 L 117,-230.975 L 117,-240.025 L 120,-240.025 L 120,-248.975 L 117,-248.975  L 117,-258.025 L 120,-258.025 L 120,-266.975 L 117,-266.975 L 117,-276.025 L 120,-276.025  L 120,-284.975 L 117,-284.975 L 117,-294.025 L 120,-294.025 L 120,-302.975 L 117,-302.975  L 117,-312.025 L 120,-312.025 L 120,-320.975 L 117,-320.975 L 117,-330 L 109.475,-330  L 109.475,-333 L 100.525,-333 L 100.525,-330 L 91.475,-330 L 91.475,-333 L 82.525,-333  L 82.525,-330 L 73.475,-330 L 73.475,-333 L 64.525,-333 L 64.525,-330 L 55.475,-330  L 55.475,-333 L 46.525,-333 L 46.525,-330 L 37.475,-330 L 37.475,-333 L 28.525,-333  L 28.525,-330 L 19.475,-330 L 19.475,-333 L 10.525,-333 L 10.525,-330 L 3,-330  L 3,-320.975 L 0,-320.975 L 0,-312.025 L 3,-312.025 L 3,-302.975 L 0,-302.975  L 0,-294.025 L 3,-294.025 L 3,-284.975 L 0,-284.975 L 0,-276.025 L 3,-276.025  L 3,-266.975 L 0,-266.975 L 0,-258.025 L 3,-258.025 L 3,-248.975 L 0,-248.975  L 0,-240.025 L 3,-240.025 L 3,-230.975 L 0,-230.975 L 0,-222.025 L 3,-222.025  L 3,-213 L 10.525,-213 L 10.525,-210 L 19.475,-210 z M 10.475,-133 L 19.525,-133 L 19.525,-130 L 28.475,-130 L 28.475,-133 L 37.525,-133  L 37.525,-130 L 46.475,-130 L 46.475,-133 L 55.525,-133 L 55.525,-130 L 64.475,-130  L 64.475,-133 L 73.525,-133 L 73.525,-130 L 82.475,-130 L 82.475,-133 L 91.525,-133  L 91.525,-130 L 100.475,-130 L 100.475,-133 L 109.525,-133 L 109.525,-130 L 120,-130  L 120,-142.475 L 117,-142.475 L 117,-151.525 L 120,-151.525 L 120,-160.475 L 117,-160.475  L 117,-169.525 L 120,-169.525 L 120,-178.475 L 117,-178.475 L 117,-187.525 L 120,-187.525  L 120,-200 L 109.525,-200 L 109.525,-197 L 100.475,-197 L 100.475,-200 L 91.525,-200  L 91.525,-197 L 82.475,-197 L 82.475,-200 L 73.525,-200 L 73.525,-197 L 64.475,-197  L 64.475,-200 L 55.525,-200 L 55.525,-197 L 46.475,-197 L 46.475,-200 L 37.525,-200  L 37.525,-197 L 28.475,-197 L 28.475,-200 L 19.525,-200 L 19.525,-197 L 10.475,-197  L 10.475,-200 L 0,-200 L 0,-187.55 L 3,-187.55 L 3,-178.45 L 0,-178.45  L 0,-169.55 L 3,-169.55 L 3,-160.45 L 0,-160.45 L 0,-151.55 L 3,-151.55  L 3,-142.45 L 0,-142.45 L 0,-130 L 10.475,-130 z M 188.525,-0 L 197.475,-0 L 197.475,-3 L 210,-3 L 210,-11.975 L 207,-11.975  L 207,-21.025 L 210,-21.025 L 210,-29.975 L 207,-29.975 L 207,-39.025 L 210,-39.025  L 210,-47.975 L 207,-47.975 L 207,-44 L 197,-44 L 197,-64 L 207,-64  L 207,-57.025 L 210,-57.025 L 210,-65.975 L 207,-65.975 L 207,-75.025 L 210,-75.025  L 210,-83.975 L 207,-83.975 L 207,-93.025 L 210,-93.025 L 210,-101.975 L 207,-101.975  L 207,-111.025 L 210,-111.025 L 210,-120 L 197.475,-120 L 197.475,-123 L 188.525,-123  L 188.525,-120 L 179.475,-120 L 179.475,-123 L 170.525,-123 L 170.525,-120 L 161.475,-120  L 161.475,-123 L 152.525,-123 L 152.525,-120 L 140,-120 L 140,-111.025 L 143,-111.025  L 143,-101.975 L 140,-101.975 L 140,-93.025 L 143,-93.025 L 143,-83.975 L 140,-83.975  L 140,-75.025 L 143,-75.025 L 143,-65.975 L 140,-65.975 L 140,-57.025 L 143,-57.025  L 143,-47.975 L 140,-47.975 L 140,-39.025 L 143,-39.025 L 143,-29.975 L 140,-29.975  L 140,-21.025 L 143,-21.025 L 143,-11.975 L 140,-11.975 L 140,-3 L 152.525,-3  L 152.525,-0 L 161.475,-0 L 161.475,-3 L 170.525,-3 L 170.525,-0 L 179.475,-0  L 179.475,-3 L 188.525,-3 z M -68.525,-3 L -59.475,-3 L -59.475,-0 L -50.525,-0 L -50.525,-3 L -41.475,-3  L -41.475,-0 L -32.525,-0 L -32.525,-3 L -20,-3 L -20,-11.975 L -23,-11.975  L -23,-21.025 L -20,-21.025 L -20,-29.975 L -23,-29.975 L -23,-39.025 L -20,-39.025  L -20,-47.975 L -23,-47.975 L -23,-57.025 L -20,-57.025 L -20,-65.975 L -23,-65.975  L -23,-75.025 L -20,-75.025 L -20,-83.975 L -23,-83.975 L -23,-93.025 L -20,-93.025  L -20,-101.975 L -23,-101.975 L -23,-111.025 L -20,-111.025 L -20,-120 L -32.525,-120  L -32.525,-123 L -41.475,-123 L -41.475,-120 L -50.525,-120 L -50.525,-123 L -59.475,-123  L -59.475,-120 L -68.525,-120 L -68.525,-123 L -77.475,-123 L -77.475,-120 L -90,-120  L -90,-111.025 L -87,-111.025 L -87,-101.975 L -90,-101.975 L -90,-93.025 L -87,-93.025  L -87,-83.975 L -90,-83.975 L -90,-75.025 L -87,-75.025 L -87,-65.975 L -90,-65.975  L -90,-57.025 L -87,-57.025 L -87,-47.975 L -90,-47.975 L -90,-39.025 L -87,-39.025  L -87,-29.975 L -90,-29.975 L -90,-21.025 L -87,-21.025 L -87,-11.975 L -90,-11.975  L -90,-3 L -77.475,-3 L -77.475,-0 L -68.525,-0 z M 19.475,-3 L 28.525,-3 L 28.525,-0 L 37.475,-0 L 37.475,-3 L 46.525,-3  L 46.525,-0 L 55.475,-0 L 55.475,-3 L 64.525,-3 L 64.525,-0 L 73.475,-0  L 73.475,-3 L 82.525,-3 L 82.525,-0 L 91.475,-0 L 91.475,-3 L 100.525,-3  L 100.525,-0 L 109.475,-0 L 109.475,-3 L 117,-3 L 117,-12.025 L 120,-12.025  L 120,-20.975 L 117,-20.975 L 117,-30.025 L 120,-30.025 L 120,-38.975 L 117,-38.975  L 117,-48.025 L 120,-48.025 L 120,-56.975 L 117,-56.975 L 117,-66.025 L 120,-66.025  L 120,-74.975 L 117,-74.975 L 117,-84.025 L 120,-84.025 L 120,-92.975 L 117,-92.975  L 117,-102.025 L 120,-102.025 L 120,-110.975 L 117,-110.975 L 117,-120 L 109.475,-120  L 109.475,-123 L 100.525,-123 L 100.525,-120 L 91.475,-120 L 91.475,-123 L 82.525,-123  L 82.525,-120 L 73.475,-120 L 73.475,-123 L 64.525,-123 L 64.525,-120 L 55.475,-120  L 55.475,-123 L 46.525,-123 L 46.525,-120 L 37.475,-120 L 37.475,-123 L 28.525,-123  L 28.525,-120 L 19.475,-120 L 19.475,-123 L 10.525,-123 L 10.525,-120 L 3,-120  L 3,-110.975 L 0,-110.975 L 0,-102.025 L 3,-102.025 L 3,-92.975 L 0,-92.975  L 0,-84.025 L 3,-84.025 L 3,-74.975 L 0,-74.975 L 0,-66.025 L 3,-66.025  L 3,-56.975 L 0,-56.975 L 0,-48.025 L 3,-48.025 L 3,-38.975 L 0,-38.975  L 0,-30.025 L 3,-30.025 L 3,-20.975 L 0,-20.975 L 0,-12.025 L 3,-12.025  L 3,-3 L 10.525,-3 L 10.525,-0 L 19.475,-0 z M 79.6864,-27.0164 L 79.073,-27.1468 L 78.5,-27.4019 L 77.9926,-27.7706 L 77.573,-28.2366 L 77.2594,-28.7798  L 77.0656,-29.3763 L 77,-30 L 77.0656,-30.6237 L 77.2594,-31.2202 L 77.573,-31.7634 L 77.9926,-32.2294  L 78.5,-32.5981 L 79.073,-32.8532 L 79.6864,-32.9836 L 80.3136,-32.9836 L 80.927,-32.8532 L 81.5,-32.5981  L 82.0074,-32.2294 L 82.427,-31.7634 L 82.7406,-31.2202 L 82.9344,-30.6237 L 83,-30 L 82.9344,-29.3763  L 82.7406,-28.7798 L 82.427,-28.2366 L 82.0074,-27.7706 L 81.5,-27.4019 L 80.927,-27.1468 L 80.3136,-27.0164  z M 43.3228,-27.0164 L 42.7093,-27.1468 L 42.1364,-27.4019 L 41.629,-27.7706 L 41.2093,-28.2366 L 40.8957,-28.7798  L 40.7019,-29.3763 L 40.6364,-30 L 40.7019,-30.6237 L 40.8957,-31.2202 L 41.2093,-31.7634 L 41.629,-32.2294  L 42.1364,-32.5981 L 42.7093,-32.8532 L 43.3228,-32.9836 L 43.9499,-32.9836 L 44.5634,-32.8532 L 45.1364,-32.5981  L 45.6438,-32.2294 L 46.0634,-31.7634 L 46.377,-31.2202 L 46.5708,-30.6237 L 46.6364,-30 L 46.5708,-29.3763  L 46.377,-28.7798 L 46.0634,-28.2366 L 45.6438,-27.7706 L 45.1364,-27.4019 L 44.5634,-27.1468 L 43.9499,-27.0164  z M 55.525,80 L 64.475,80 L 64.475,77 L 73.525,77 L 73.525,80 L 82.475,80  L 82.475,77 L 91.525,77 L 91.525,80 L 100.475,80 L 100.475,77 L 109.525,77  L 109.525,80 L 120,80 L 120,67.525 L 117,67.525 L 117,58.475 L 120,58.475  L 120,49.525 L 117,49.525 L 117,40.475 L 120,40.475 L 120,31.525 L 117,31.525  L 117,22.475 L 120,22.475 L 120,10 L 109.525,10 L 109.525,13 L 100.475,13  L 100.475,10 L 91.525,10 L 91.525,13 L 82.475,13 L 82.475,10 L 73.525,10  L 73.525,13 L 64.475,13 L 64.475,10 L 55.525,10 L 55.525,13 L 46.475,13  L 46.475,10 L 37.525,10 L 37.525,13 L 28.475,13 L 28.475,10 L 19.525,10  L 19.525,13 L 10.475,13 L 10.475,10 L 0,10 L 0,22.45 L 3,22.45  L 3,31.55 L 0,31.55 L 0,40.45 L 3,40.45 L 3,49.55 L 0,49.55  L 0,58.45 L 3,58.45 L 3,67.55 L 0,67.55 L 0,80 L 10.475,80  L 10.475,77 L 19.525,77 L 19.525,80 L 28.475,80 L 28.475,77 L 37.525,77  L 37.525,80 L 46.475,80 L 46.475,77 L 55.525,77 z M 28.65,64.5 L 28.65,25.5 L 91.35,25.5 L 91.35,64.5 z "
     stroke="black"
     fill="lightgray"
     stroke-width="0.5"
     id="path1"
     style="fill:none;stroke:#ff0000;stroke-opacity:1;stroke-width:0.2;stroke-dasharray:none" />
</svg>
